<svg width="124" height="124" viewBox="0 0 124 124" fill="none" xmlns="http://www.w3.org/2000/svg">
<path d="M71.4472 66.2949C75.2378 62.5042 75.2378 56.3584 71.4472 52.5677C67.6565 48.7771 61.5107 48.7771 57.72 52.5677C53.9293 56.3584 53.9293 62.5042 57.72 66.2949C61.5107 70.0855 67.6565 70.0855 71.4472 66.2949Z" fill="#7540F0"/>
<path d="M53.1694 84.5714C56.96 80.7808 56.96 74.6349 53.1694 70.8443C49.3787 67.0536 43.2329 67.0536 39.4422 70.8443L2.87664 107.41C-0.91401 111.2 -0.914009 117.346 2.87664 121.137C6.66729 124.928 12.8132 124.928 16.6038 121.137L53.1694 84.5714Z" fill="#7540F0"/>
<path d="M69.1306 4.56533C69.1306 2.04397 67.0867 0 64.5653 0C62.0439 0 60 2.04397 60 4.56533V13.696C60 16.2174 62.0439 18.2613 64.5653 18.2613C67.0867 18.2613 69.1306 16.2174 69.1306 13.696V4.56533Z" fill="#7540F0"/>
<path d="M93.6895 23.876C91.9066 25.6588 91.9066 28.5494 93.6895 30.3323C95.4724 32.1151 98.3629 32.1151 100.146 30.3323L106.602 23.876C108.385 22.0931 108.385 19.2025 106.602 17.4197C104.819 15.6368 101.929 15.6368 100.146 17.4197L93.6895 23.876Z" fill="#7540F0"/>
<path d="M28.9699 17.4185C27.187 15.6357 24.2964 15.6357 22.5136 17.4185C20.7307 19.2014 20.7307 22.092 22.5136 23.8748L28.9699 30.3311C30.7527 32.114 33.6433 32.114 35.4262 30.3311C37.209 28.5483 37.209 25.6577 35.4262 23.8748L28.9699 17.4185Z" fill="#7540F0"/>
<path d="M100.113 88.5308C98.3301 86.748 95.4395 86.748 93.6567 88.5308C91.8738 90.3137 91.8738 93.2043 93.6567 94.9871L100.113 101.443C101.896 103.226 104.786 103.226 106.569 101.443C108.352 99.6606 108.352 96.77 106.569 94.9871L100.113 88.5308Z" fill="#7540F0"/>
<path d="M124 59.392C124 56.8706 121.956 54.8267 119.435 54.8267H110.304C107.783 54.8267 105.739 56.8706 105.739 59.392C105.739 61.9134 107.783 63.9573 110.304 63.9573H119.435C121.956 63.9573 124 61.9134 124 59.392Z" fill="#7540F0"/>
</svg>
