<svg width="620" height="104" viewBox="0 0 620 104" fill="none" xmlns="http://www.w3.org/2000/svg">
<g clip-path="url(#clip0_79_2038)">
<path d="M0 24.2373V48.9268L1.50681 52.0001L3.01361 55.0735V63.5765V72.0795L1.50681 75.1528L0 78.2262V91.3392V104.452H25.7161H51.4323L54.1044 103.1L56.7563 101.748L59.4284 103.1L62.0804 104.452H82.4725H102.865V83.6558V62.8594L101.539 60.1343L100.213 57.4297L101.539 54.7047L102.865 52.0001V25.774V-0.452057H96.4355H90.0065L87.3947 0.879737L84.7829 2.21153L82.1711 0.879737L79.5593 -0.452057H67.0026H54.4459L51.4323 1.08463L48.4187 2.62131H40.081H31.7434L28.7298 1.08463L25.7161 -0.452057H12.8581H0V24.2373ZM54.1044 40.9565C70.5988 53.5983 84.2405 64.0887 84.4213 64.2731C84.7427 64.5804 84.6624 65.2566 83.256 75.2553C82.4524 81.0947 81.7693 85.9096 81.7693 85.9506C81.7693 85.9916 79.037 85.9916 75.7019 85.9711L69.6345 85.9096L65.7771 81.2996L61.8996 76.6895L61.116 73.3498C60.674 71.5058 60.2923 69.9896 60.2521 69.9486C60.2119 69.9076 58.8056 69.2929 57.118 68.5758L54.0642 67.2645L36.0428 45.669L18.0415 24.0734L21.0149 21.041C22.6623 19.3609 24.0285 17.9882 24.0687 17.9882C24.0888 17.9882 37.6099 28.3352 54.1044 40.9565ZM80.3228 22.5572L84.7829 27.1058L84.7427 36.285L84.6825 45.4436L71.2217 31.7159L57.7609 17.9882H66.8017H75.8425L80.3228 22.5572ZM36.2236 85.9711L27.2229 86.0121L22.6624 81.361L18.0817 76.6895V67.4694V58.2698L31.6429 72.0795L45.2042 85.9096L36.2236 85.9711Z" fill="#BBDD00"/>
<path d="M160.366 92.1784C154.948 92.1784 150.148 91.0245 145.965 88.7166C141.85 86.3386 138.627 83.0518 136.295 78.8556C134.032 74.5893 132.901 69.6588 132.901 64.0641V45.1813C132.901 39.5865 134.032 34.6909 136.295 30.4947C138.627 26.2286 141.85 22.9416 145.965 20.6337C150.148 18.2558 154.948 17.0669 160.366 17.0669H171.269C176.687 17.0669 181.453 18.2558 185.568 20.6337C189.751 22.9416 192.974 26.2286 195.237 30.4947C197.569 34.6909 198.734 39.5865 198.734 45.1813V64.0641C198.734 69.6588 197.569 74.5893 195.237 78.8556C192.974 83.0518 189.751 86.3386 185.568 88.7166C181.453 91.0245 176.687 92.1784 171.269 92.1784H160.366ZM171.269 79.3801C175.247 79.3801 178.436 77.9114 180.836 74.9741C183.305 72.0368 184.539 68.1902 184.539 63.4346V45.8107C184.539 41.0552 183.305 37.2086 180.836 34.2712C178.436 31.3339 175.247 29.8653 171.269 29.8653H160.366C156.388 29.8653 153.165 31.3339 150.696 34.2712C148.296 37.2086 147.096 41.0552 147.096 45.8107V63.4346C147.096 68.1902 148.296 72.0368 150.696 74.9741C153.165 77.9114 156.388 79.3801 160.366 79.3801H171.269ZM208.983 38.9919H221.944V44.6568C223.384 42.6984 225.201 41.1249 227.396 39.9361C229.659 38.7473 231.853 38.1527 233.979 38.1527H240.459C244.574 38.1527 248.208 39.0268 251.363 40.7753C254.518 42.4538 256.952 44.8317 258.666 47.9088C260.381 50.9859 261.238 54.5178 261.238 58.5041V70.2534C261.238 74.5893 260.381 78.436 258.666 81.7929C256.952 85.0798 254.552 87.6327 251.466 89.4509C248.38 91.2691 244.814 92.1784 240.768 92.1784H234.082C232.162 92.1784 230.173 91.724 228.116 90.8147C226.127 89.9054 224.413 88.6818 222.972 87.143V112.32H208.983V38.9919ZM238.916 79.9046C241.454 79.9046 243.477 78.9257 244.985 76.9673C246.494 75.009 247.249 72.4216 247.249 69.2044V59.5532C247.249 56.8257 246.46 54.6227 244.883 52.9442C243.374 51.2657 241.351 50.4265 238.814 50.4265H232.539C230.55 50.4265 228.664 51.2657 226.881 52.9442C225.098 54.5526 223.795 56.6507 222.972 59.2385V69.624C223.315 72.7011 224.344 75.1839 226.058 77.0722C227.841 78.9605 230.001 79.9046 232.539 79.9046H238.916ZM291.019 92.1784C286.699 92.1784 282.859 91.374 279.498 89.7656C276.206 88.0872 273.635 85.7793 271.783 82.8419C269.932 79.8346 269.006 76.408 269.006 72.5613V59.0287C269.006 54.9026 269.932 51.2657 271.783 48.1186C273.635 44.9715 276.206 42.5238 279.498 40.7753C282.859 39.0268 286.699 38.1527 291.019 38.1527H299.248C305.831 38.1527 311.112 40.041 315.089 43.8175C319.067 47.5941 321.055 52.6295 321.055 58.9238V70.0436H282.996V72.5613C282.996 74.8692 283.716 76.7227 285.156 78.1213C286.596 79.5198 288.55 80.2193 291.019 80.2193H299.042C301.442 80.2193 303.363 79.6948 304.803 78.6458C306.312 77.5267 307.066 76.0932 307.066 74.3447H320.85C320.85 77.8414 319.924 80.9537 318.072 83.6812C316.221 86.4087 313.615 88.5068 310.255 89.9754C306.963 91.4441 303.157 92.1784 298.837 92.1784H291.019ZM307.272 59.763V58.9238C307.272 56.1962 306.551 54.0281 305.111 52.4197C303.671 50.7412 301.751 49.902 299.351 49.902H291.019C288.55 49.902 286.562 50.7761 285.053 52.5246C283.544 54.2731 282.79 56.581 282.79 59.4483V59.763H307.272ZM330.532 38.9919H343.493V45.2862C345.002 43.118 346.956 41.4047 349.356 40.1459C351.756 38.817 354.156 38.1527 356.557 38.1527H362.728C368.214 38.1527 372.603 39.9012 375.895 43.3979C379.255 46.8946 380.935 51.5104 380.935 57.2453V91.3392H366.946V57.7698C366.946 55.6017 366.363 53.8535 365.197 52.5246C364.1 51.1957 362.66 50.5314 360.877 50.5314H354.705C352.305 50.5314 350.145 51.4407 348.224 53.2589C346.373 55.0075 345.139 57.3154 344.521 60.1826V91.3392H330.532V38.9919ZM402.598 91.3392C399.651 91.3392 397.251 90.4299 395.399 88.6117C393.548 86.7935 392.622 84.4155 392.622 81.4782V17.9062H426.98C432.465 17.9062 437.267 18.9552 441.381 21.0533C445.564 23.1514 448.787 26.1237 451.049 29.9702C453.379 33.8168 454.545 38.2576 454.545 43.293V63.8543C454.545 72.876 452.25 79.7297 447.653 84.4155C443.061 89.0313 436.306 91.3392 427.39 91.3392H402.598ZM426.98 78.5409C431.368 78.5409 434.695 77.2472 436.957 74.6594C439.219 72.0716 440.353 68.2602 440.353 63.2248V43.9224C440.353 39.9361 439.083 36.7541 436.543 34.3761C434.008 31.9285 430.681 30.7045 426.566 30.7045H406.817V78.5409H426.98ZM484.291 92.1784C479.967 92.1784 476.13 91.3392 472.767 89.6607C469.476 87.9122 466.904 85.4646 465.052 82.3174C463.272 79.1703 462.38 75.5335 462.38 71.4074V59.1336C462.38 55.0075 463.304 51.3706 465.157 48.2235C467.009 45.0063 469.58 42.5238 472.871 40.7753C476.23 39.0268 480.072 38.1527 484.391 38.1527H493.649C497.969 38.1527 501.778 39.0268 505.069 40.7753C508.428 42.5238 511.036 45.0063 512.884 48.2235C514.736 51.3706 515.665 55.0075 515.665 59.1336V71.4074C515.665 75.5335 514.736 79.1703 512.884 82.3174C511.036 85.4646 508.428 87.9122 505.069 89.6607C501.778 91.3392 497.937 92.1784 493.549 92.1784H484.291ZM493.34 79.9046C495.879 79.9046 497.9 79.0306 499.411 77.282C500.918 75.4638 501.673 73.1207 501.673 70.2534V60.0777C501.673 57.2105 500.918 54.9026 499.411 53.154C497.9 51.3358 495.911 50.4265 493.444 50.4265H484.596C482.129 50.4265 480.14 51.3358 478.633 53.154C477.123 54.9026 476.367 57.2105 476.367 60.0777V70.2534C476.367 73.1207 477.123 75.4638 478.633 77.282C480.14 79.0306 482.093 79.9046 484.496 79.9046H493.34ZM547.336 91.3392C541.3 91.3392 536.876 89.9406 534.064 87.143C531.251 84.3454 529.849 80.0095 529.849 74.1349V51.1608H520.796V38.9919H530.259V23.1514H543.836V38.9919H557.208V51.1608H543.836V73.5055C543.836 75.4638 544.181 76.8972 544.864 77.8065C545.62 78.7158 546.785 79.1703 548.364 79.1703H557.208V91.3392H547.336ZM582.149 92.1784C576.797 92.1784 572.477 90.8147 569.186 88.0872C565.895 85.3596 564.248 81.7581 564.248 77.282V73.4006C564.248 68.9946 565.964 65.4627 569.391 62.8052C572.823 60.0777 577.347 58.714 582.968 58.714H589.245C591.029 58.714 592.95 58.9586 595.007 59.4483C597.064 59.938 598.949 60.6022 600.664 61.4415V55.9864C600.664 54.2379 600.082 52.8393 598.913 51.7903C597.816 50.6712 596.341 50.1118 594.493 50.1118H585.645C583.724 50.1118 582.181 50.5662 581.016 51.4756C579.85 52.3849 579.268 53.6085 579.268 55.1472H565.69C565.69 50.0417 567.507 45.9504 571.139 42.8734C574.844 39.7263 579.678 38.1527 585.645 38.1527H594.493C600.524 38.1527 605.394 39.7963 609.098 43.0832C612.799 46.3004 614.652 50.6015 614.652 55.9864V91.3392H601.693V85.0449C600.046 87.2131 598.024 88.9612 595.622 90.2902C593.223 91.549 590.856 92.1784 588.526 92.1784H582.149ZM589.554 81.2684C592.09 81.2684 594.352 80.6041 596.341 79.2752C598.33 77.9463 599.772 76.1629 600.664 73.9251V72.1417C599.567 71.3025 598.024 70.6382 596.035 70.1485C594.115 69.6588 592.058 69.4142 589.864 69.4142H583.382C581.735 69.4142 580.397 69.8338 579.368 70.673C578.34 71.5123 577.825 72.6314 577.825 74.03V76.7575C577.825 78.0864 578.376 79.1703 579.473 80.0095C580.638 80.8488 582.149 81.2684 583.997 81.2684H589.554Z" fill="white"/>
</g>
<defs>
<clipPath id="clip0_79_2038">
<rect width="620" height="104" fill="white"/>
</clipPath>
</defs>
</svg>
